# xmcd
#
# Track frame offsets:
#	150
#	14660
#	30386
#	56568
#	84666
#	103964
#	126047
#	151506
#	173640
#
# Disc length: 2688 seconds
# Revision: 0
# Processed by: cddbd v1.5.2PL0 Copyright (c) Steve Scherf et al.
# Submitted via: dBpowerAMP V12.0
#
DISCID=660a7e09
DTITLE=Threat Signal - Threat Signal
DYEAR=2011
DGENRE=Metal
TTITLE0=Uncensored
TTITLE1=Comatose
TTITLE2=New World Order
TTITLE3=Trust in None
TTITLE4=Face the Day
TTITLE5=Fallen Disciples
TTITLE6=Disposition
TTITLE7=Death Before Dishonor
TTITLE8=Buried Alive
EXTD=
EXTT0=
EXTT1=
EXTT2=
EXTT3=
EXTT4=
EXTT5=
EXTT6=
EXTT7=
EXTT8=
PLAYORDER=
